<?xml version="1.0" encoding="UTF-8"?>
<svg id="Layer_2" data-name="Layer 2" xmlns="http://www.w3.org/2000/svg" viewBox="0 0 203.35 180.88">
  <defs>
    <style>
      .cls-1 {
        fill: #6445e8;
        stroke-width: 0px;
      }
    </style>
  </defs>
  <g id="Layer_1-2" data-name="Layer 1">
    <g>
      <g>
        <path class="cls-1" d="M125.04,98.59c0,13.05-6.53,23.61-14.61,23.61s-14.61-10.56-14.61-23.61,6.53-23.59,14.61-23.59,14.61,10.56,14.61,23.59Z"/>
        <path class="cls-1" d="M160.55,99.87c0,11.56-5.79,20.91-12.94,20.91s-12.94-9.36-12.94-20.91,5.79-20.91,12.94-20.91,12.94,9.37,12.94,20.91Z"/>
      </g>
      <path class="cls-1" d="M203.35,101.32c0,26.2-8.55,46.12-25.65,59.8-12.05,9.62-28.18,15.85-48.41,18.69v-37.83c27.58-2.58,52.62-12.99,52.62-41.82v-.11c0-24.74-18.43-35.93-41.11-40.23.07-.51.11-1.01.11-1.53,0-6.01-4.88-10.89-10.89-10.89s-10.53,4.53-10.85,10.23c-12.72-.36-25.43.64-35.94,2-16.28,2.11-30.41,13.85-35.68,28.29-.71-.15-1.46-.22-2.21-.22-6.02,0-10.89,4.88-10.89,10.89s4.87,10.91,10.89,10.91c.43,0,.86-.02,1.29-.07,4.36,15.74,19.25,28.91,36.6,31.15,9.64,1.25,21.09,2.19,32.71,2.06l-32.16,38.25c-24.81-2.11-44.18-8.83-58.1-20.19C8.57,146.75,0,126.96,0,101.32s8.57-45.41,25.67-59.37c5.86-4.77,12.71-8.74,20.51-11.88C26.23,20.34,27.97,0,27.97,0h29.64c2,14.73,13.15,21.54,15.79,22.96,8.66-1.29,18.09-1.93,28.27-1.93,33.59,0,58.9,6.98,76.02,20.92,17.1,13.96,25.65,33.74,25.65,59.37Z"/>
    </g>
  </g>
</svg>