<?xml version="1.0" encoding="UTF-8"?>
<svg id="Layer_2" data-name="Layer 2" xmlns="http://www.w3.org/2000/svg" viewBox="0 0 609.05 164.18">
  <defs>
    <style>
      .cls-1 {
        fill: #ffb943;
      }

      .cls-1, .cls-2, .cls-3 {
        stroke-width: 0px;
      }

      .cls-2 {
        fill: #6445e8;
      }

      .cls-3 {
        fill: #ffba43;
      }
    </style>
  </defs>
  <g id="Layer_1-2" data-name="Layer 1">
    <g>
      <g>
        <g>
          <g>
            <path class="cls-2" d="M38.04,102.06h39.37v41.52h-10.3l-1.24-8.6c-3.39,3.39-7.2,5.9-11.43,7.52-4.23,1.62-9.2,2.43-14.94,2.43-12.29,0-21.69-3.3-28.17-9.9-6.49-6.6-9.73-16.69-9.73-30.27s3.41-23.48,10.24-30.15c6.83-6.68,16.61-10.01,29.36-10.01,6.79,0,12.91,1.04,18.39,3.11,5.47,2.08,9.8,5.19,13.01,9.33,3.2,4.15,4.81,9.28,4.81,15.39h-14.93c0-4.9-2-8.73-6-11.48-4-2.75-8.98-4.13-14.93-4.13-8.45,0-14.75,2.23-18.9,6.68-4.15,4.45-6.22,11.16-6.22,20.14v2.26c.07,9.28,2.05,16.07,5.94,20.37,3.88,4.3,9.82,6.45,17.82,6.45,7.09,0,12.65-1.62,16.69-4.86,4.03-3.24,6.05-7.81,6.05-13.69v-.11h-24.89v-11.99Z"/>
            <path class="cls-2" d="M89.19,141.38c-3.88-2.38-5.83-6.77-5.83-13.18,0-7.62,3.24-12.97,9.73-16.07,6.49-3.09,15.69-4.64,27.61-4.64v-4.98c0-2.87-.74-5.09-2.21-6.68-1.47-1.58-4.13-2.38-7.98-2.38s-6.83.64-8.49,1.92c-1.66,1.28-2.49,2.87-2.49,4.75v1.58h-13.12c-.08-.45-.11-1.28-.11-2.49,0-5.13,2.21-9.16,6.62-12.11,4.41-2.94,10.28-4.41,17.59-4.41,7.92,0,13.86,1.62,17.82,4.87,3.96,3.24,5.94,7.88,5.94,13.92v28.4c0,1.36.38,2.36,1.13,3,.75.64,1.7.96,2.83.96h3.62v9.28c-2.42,1.13-5.24,1.7-8.49,1.7-2.94,0-5.39-.72-7.35-2.15-1.96-1.43-3.28-3.39-3.96-5.88h-.79c-4.45,5.43-10.79,8.15-19.01,8.15-4.83,0-9.18-1.19-13.07-3.56ZM116.86,130.24c2.56-2.56,3.85-6.03,3.85-10.41v-2.71c-7.32,0-13.05.7-17.2,2.09-4.15,1.4-6.22,3.94-6.22,7.64,0,4.83,3.02,7.24,9.05,7.24,4.45,0,7.96-1.28,10.52-3.85Z"/>
            <path class="cls-2" d="M147.97,137.25c-4.15-5.13-6.22-12.97-6.22-23.53s2.07-17.99,6.22-23.19c4.15-5.2,9.69-7.81,16.63-7.81,8.3,0,14.26,2.75,17.88,8.26h.68v-25h13.58v77.62h-11.2l-1.13-7.92h-.68c-1.96,3.02-4.53,5.32-7.69,6.9-3.17,1.58-6.68,2.38-10.52,2.38-7.54,0-13.39-2.56-17.54-7.69ZM179.88,128.59c2.19-3.13,3.28-7.79,3.28-13.97v-1.36c0-12.6-4.53-18.9-13.58-18.9-4.98,0-8.53,1.49-10.64,4.47-2.11,2.98-3.17,7.75-3.17,14.31v1.47c0,6.49,1.06,11.22,3.17,14.2,2.11,2.98,5.66,4.47,10.64,4.47,4.68,0,8.11-1.56,10.3-4.7Z"/>
            <path class="cls-2" d="M204.55,160.5c-2.98-2.45-4.47-5.87-4.47-10.24,0-5.43,3.09-9.54,9.28-12.33-1.81-.98-3.24-2.22-4.3-3.73-1.06-1.51-1.58-3.28-1.58-5.32,0-2.64,1-4.83,3-6.56,2-1.73,4.43-2.94,7.3-3.62-2.71-1.73-4.81-3.96-6.28-6.68-1.47-2.72-2.21-5.77-2.21-9.17,0-6.26,2.24-11.18,6.73-14.76,4.49-3.58,10.77-5.37,18.84-5.37,4.53,0,8.45.6,11.77,1.81,2.41-1.43,4.19-3.07,5.32-4.92,1.13-1.85,1.77-3.64,1.92-5.37h13.12c0,3.92-1.09,7.17-3.28,9.73-2.19,2.57-5.21,4.26-9.05,5.09,3.92,3.7,5.88,8.3,5.88,13.8,0,6.26-2.19,11.2-6.56,14.82-4.38,3.62-10.52,5.43-18.44,5.43h-9.28c-1.58,0-2.83.34-3.73,1.02-.9.68-1.36,1.62-1.36,2.83,0,1.13.41,2.06,1.24,2.77.83.72,1.96,1.07,3.4,1.07h26.02c4.45,0,8.11,1.45,10.97,4.36,2.87,2.9,4.3,6.58,4.3,11.03,0,3.32-.87,6.35-2.6,9.11-1.74,2.75-4.2,4.92-7.41,6.51-3.21,1.58-6.88,2.38-11.03,2.38h-26.7c-4.23,0-7.83-1.23-10.8-3.68ZM242.06,154.33c2.11,0,3.88-.55,5.32-1.64,1.43-1.09,2.15-2.55,2.15-4.36s-.6-3.36-1.81-4.41-2.79-1.58-4.75-1.58h-22.85c-1.89,0-3.41.57-4.58,1.7-1.17,1.13-1.76,2.56-1.76,4.3s.58,3.26,1.76,4.36c1.17,1.09,2.7,1.64,4.58,1.64h21.95ZM240.02,110.72c2.04-1.85,3.06-4.47,3.06-7.86s-1.02-6.01-3.06-7.86c-2.04-1.85-5.05-2.77-9.05-2.77s-7.01.92-9.05,2.77c-2.04,1.85-3.05,4.47-3.05,7.86s1.02,6.11,3.05,7.92c2.04,1.81,5.05,2.71,9.05,2.71s7.01-.92,9.05-2.77Z"/>
            <path class="cls-2" d="M268.57,137.36c-4.68-5.05-7.01-12.9-7.01-23.53s2.36-18.48,7.07-23.53c4.71-5.05,11.86-7.58,21.44-7.58,8.75,0,15.29,2.45,19.63,7.35,4.34,4.9,6.5,12.56,6.5,22.97v4.07h-40.84c.23,5.88,1.49,10.2,3.79,12.95,2.3,2.75,5.98,4.13,11.03,4.13,3.77,0,6.83-.96,9.16-2.89,2.34-1.92,3.51-4.77,3.51-8.54h13.35c0,7.32-2.42,12.84-7.24,16.58-4.83,3.73-11.13,5.6-18.9,5.6-9.66,0-16.82-2.53-21.5-7.58ZM302.06,107.49c0-9.35-4-14.03-11.99-14.03-4.53,0-7.94,1.15-10.24,3.45s-3.72,5.83-4.24,10.58h26.48Z"/>
            <path class="cls-2" d="M327.37,140.7c-2.23-2.83-3.34-6.35-3.34-10.58v-34.96h-7.24v-11.09h7.47l2.49-16.63h10.86v16.63h10.18v11.09h-10.18v33.6c0,3.39,1.62,5.09,4.86,5.09h5.32v9.28c-1.21.45-2.71.87-4.53,1.24-1.81.38-3.47.57-4.98.57-5.05,0-8.69-1.41-10.92-4.24Z"/>
          </g>
          <g>
            <path class="cls-2" d="M351.22,65.97h37.34c8.3,0,14.6,2.19,18.9,6.56,4.3,4.38,6.45,10.45,6.45,18.22s-2.25,13.9-6.73,18.39c-4.49,4.49-10.96,6.73-19.4,6.73h-22.06v27.72h-14.48v-77.62ZM387.31,103.53c3.77,0,6.71-1.13,8.83-3.39,2.11-2.26,3.17-5.39,3.17-9.39s-1.02-6.98-3.05-9.16c-2.04-2.19-5.02-3.28-8.94-3.28h-21.61v25.23h21.61Z"/>
            <path class="cls-2" d="M421.31,141.38c-3.89-2.38-5.83-6.77-5.83-13.18,0-7.62,3.24-12.97,9.73-16.07,6.49-3.09,15.69-4.64,27.61-4.64v-4.98c0-2.87-.74-5.09-2.21-6.68-1.47-1.58-4.13-2.38-7.98-2.38s-6.83.64-8.49,1.92c-1.66,1.28-2.49,2.87-2.49,4.75v1.58h-13.12c-.08-.45-.11-1.28-.11-2.49,0-5.13,2.21-9.16,6.62-12.11,4.41-2.94,10.28-4.41,17.59-4.41,7.92,0,13.86,1.62,17.82,4.87,3.96,3.24,5.94,7.88,5.94,13.92v28.4c0,1.36.38,2.36,1.13,3,.75.64,1.7.96,2.83.96h3.62v9.28c-2.42,1.13-5.24,1.7-8.49,1.7-2.94,0-5.39-.72-7.35-2.15-1.96-1.43-3.28-3.39-3.96-5.88h-.79c-4.45,5.43-10.79,8.15-19.01,8.15-4.83,0-9.18-1.19-13.07-3.56ZM448.97,130.24c2.56-2.56,3.85-6.03,3.85-10.41v-2.71c-7.32,0-13.05.7-17.2,2.09-4.15,1.4-6.22,3.94-6.22,7.64,0,4.83,3.02,7.24,9.05,7.24,4.45,0,7.96-1.28,10.52-3.85Z"/>
            <path class="cls-2" d="M480.09,137.25c-4.15-5.13-6.22-12.97-6.22-23.53s2.07-17.99,6.22-23.19c4.15-5.2,9.69-7.81,16.63-7.81,8.3,0,14.25,2.75,17.88,8.26h.68v-25h13.58v77.62h-11.2l-1.13-7.92h-.68c-1.96,3.02-4.53,5.32-7.69,6.9-3.17,1.58-6.68,2.38-10.52,2.38-7.54,0-13.39-2.56-17.54-7.69ZM511.99,128.59c2.19-3.13,3.28-7.79,3.28-13.97v-1.36c0-12.6-4.53-18.9-13.58-18.9-4.98,0-8.53,1.49-10.64,4.47-2.11,2.98-3.17,7.75-3.17,14.31v1.47c0,6.49,1.05,11.22,3.17,14.2,2.11,2.98,5.66,4.47,10.64,4.47,4.68,0,8.11-1.56,10.29-4.7Z"/>
            <path class="cls-2" d="M537.78,84.07h13.58v59.51h-13.58v-59.51Z"/>
          </g>
        </g>
        <g>
          <g>
            <path class="cls-2" d="M38.04,102.06h39.37v41.52h-10.3l-1.24-8.6c-3.39,3.39-7.2,5.9-11.43,7.52-4.23,1.62-9.2,2.43-14.94,2.43-12.29,0-21.69-3.3-28.17-9.9-6.49-6.6-9.73-16.69-9.73-30.27s3.41-23.48,10.24-30.15c6.83-6.68,16.61-10.01,29.36-10.01,6.79,0,12.91,1.04,18.39,3.11,5.47,2.08,9.8,5.19,13.01,9.33,3.2,4.15,4.81,9.28,4.81,15.39h-14.93c0-4.9-2-8.73-6-11.48-4-2.75-8.98-4.13-14.93-4.13-8.45,0-14.75,2.23-18.9,6.68-4.15,4.45-6.22,11.16-6.22,20.14v2.26c.07,9.28,2.05,16.07,5.94,20.37,3.88,4.3,9.82,6.45,17.82,6.45,7.09,0,12.65-1.62,16.69-4.86,4.03-3.24,6.05-7.81,6.05-13.69v-.11h-24.89v-11.99Z"/>
            <path class="cls-2" d="M89.19,141.38c-3.88-2.38-5.83-6.77-5.83-13.18,0-7.62,3.24-12.97,9.73-16.07,6.49-3.09,15.69-4.64,27.61-4.64v-4.98c0-2.87-.74-5.09-2.21-6.68-1.47-1.58-4.13-2.38-7.98-2.38s-6.83.64-8.49,1.92c-1.66,1.28-2.49,2.87-2.49,4.75v1.58h-13.12c-.08-.45-.11-1.28-.11-2.49,0-5.13,2.21-9.16,6.62-12.11,4.41-2.94,10.28-4.41,17.59-4.41,7.92,0,13.86,1.62,17.82,4.87,3.96,3.24,5.94,7.88,5.94,13.92v28.4c0,1.36.38,2.36,1.13,3,.75.64,1.7.96,2.83.96h3.62v9.28c-2.42,1.13-5.24,1.7-8.49,1.7-2.94,0-5.39-.72-7.35-2.15-1.96-1.43-3.28-3.39-3.96-5.88h-.79c-4.45,5.43-10.79,8.15-19.01,8.15-4.83,0-9.18-1.19-13.07-3.56ZM116.86,130.24c2.56-2.56,3.85-6.03,3.85-10.41v-2.71c-7.32,0-13.05.7-17.2,2.09-4.15,1.4-6.22,3.94-6.22,7.64,0,4.83,3.02,7.24,9.05,7.24,4.45,0,7.96-1.28,10.52-3.85Z"/>
            <path class="cls-2" d="M147.97,137.25c-4.15-5.13-6.22-12.97-6.22-23.53s2.07-17.99,6.22-23.19c4.15-5.2,9.69-7.81,16.63-7.81,8.3,0,14.26,2.75,17.88,8.26h.68v-25h13.58v77.62h-11.2l-1.13-7.92h-.68c-1.96,3.02-4.53,5.32-7.69,6.9-3.17,1.58-6.68,2.38-10.52,2.38-7.54,0-13.39-2.56-17.54-7.69ZM179.88,128.59c2.19-3.13,3.28-7.79,3.28-13.97v-1.36c0-12.6-4.53-18.9-13.58-18.9-4.98,0-8.53,1.49-10.64,4.47-2.11,2.98-3.17,7.75-3.17,14.31v1.47c0,6.49,1.06,11.22,3.17,14.2,2.11,2.98,5.66,4.47,10.64,4.47,4.68,0,8.11-1.56,10.3-4.7Z"/>
            <path class="cls-2" d="M204.55,160.5c-2.98-2.45-4.47-5.87-4.47-10.24,0-5.43,3.09-9.54,9.28-12.33-1.81-.98-3.24-2.22-4.3-3.73-1.06-1.51-1.58-3.28-1.58-5.32,0-2.64,1-4.83,3-6.56,2-1.73,4.43-2.94,7.3-3.62-2.71-1.73-4.81-3.96-6.28-6.68-1.47-2.72-2.21-5.77-2.21-9.17,0-6.26,2.24-11.18,6.73-14.76,4.49-3.58,10.77-5.37,18.84-5.37,4.53,0,8.45.6,11.77,1.81,2.41-1.43,4.19-3.07,5.32-4.92,1.13-1.85,1.77-3.64,1.92-5.37h13.12c0,3.92-1.09,7.17-3.28,9.73-2.19,2.57-5.21,4.26-9.05,5.09,3.92,3.7,5.88,8.3,5.88,13.8,0,6.26-2.19,11.2-6.56,14.82-4.38,3.62-10.52,5.43-18.44,5.43h-9.28c-1.58,0-2.83.34-3.73,1.02-.9.68-1.36,1.62-1.36,2.83,0,1.13.41,2.06,1.24,2.77.83.72,1.96,1.07,3.4,1.07h26.02c4.45,0,8.11,1.45,10.97,4.36,2.87,2.9,4.3,6.58,4.3,11.03,0,3.32-.87,6.35-2.6,9.11-1.74,2.75-4.2,4.92-7.41,6.51-3.21,1.58-6.88,2.38-11.03,2.38h-26.7c-4.23,0-7.83-1.23-10.8-3.68ZM242.06,154.33c2.11,0,3.88-.55,5.32-1.64,1.43-1.09,2.15-2.55,2.15-4.36s-.6-3.36-1.81-4.41-2.79-1.58-4.75-1.58h-22.85c-1.89,0-3.41.57-4.58,1.7-1.17,1.13-1.76,2.56-1.76,4.3s.58,3.26,1.76,4.36c1.17,1.09,2.7,1.64,4.58,1.64h21.95ZM240.02,110.72c2.04-1.85,3.06-4.47,3.06-7.86s-1.02-6.01-3.06-7.86c-2.04-1.85-5.05-2.77-9.05-2.77s-7.01.92-9.05,2.77c-2.04,1.85-3.05,4.47-3.05,7.86s1.02,6.11,3.05,7.92c2.04,1.81,5.05,2.71,9.05,2.71s7.01-.92,9.05-2.77Z"/>
            <path class="cls-2" d="M268.57,137.36c-4.68-5.05-7.01-12.9-7.01-23.53s2.36-18.48,7.07-23.53c4.71-5.05,11.86-7.58,21.44-7.58,8.75,0,15.29,2.45,19.63,7.35,4.34,4.9,6.5,12.56,6.5,22.97v4.07h-40.84c.23,5.88,1.49,10.2,3.79,12.95,2.3,2.75,5.98,4.13,11.03,4.13,3.77,0,6.83-.96,9.16-2.89,2.34-1.92,3.51-4.77,3.51-8.54h13.35c0,7.32-2.42,12.84-7.24,16.58-4.83,3.73-11.13,5.6-18.9,5.6-9.66,0-16.82-2.53-21.5-7.58ZM302.06,107.49c0-9.35-4-14.03-11.99-14.03-4.53,0-7.94,1.15-10.24,3.45s-3.72,5.83-4.24,10.58h26.48Z"/>
            <path class="cls-2" d="M327.37,140.7c-2.23-2.83-3.34-6.35-3.34-10.58v-34.96h-7.24v-11.09h7.47l2.49-18.1h10.86v18.1h10.18v11.09h-10.18v33.6c0,3.39,1.62,5.09,4.86,5.09h5.32v9.28c-1.21.45-2.71.87-4.53,1.24-1.81.38-3.47.57-4.98.57-5.05,0-8.69-1.41-10.92-4.24Z"/>
          </g>
          <g>
            <path class="cls-3" d="M351.22,65.97h37.34c8.3,0,14.6,2.19,18.9,6.56,4.3,4.38,6.45,10.45,6.45,18.22s-2.25,13.9-6.73,18.39c-4.49,4.49-10.96,6.73-19.4,6.73h-22.06v27.72h-14.48v-77.62ZM387.31,103.53c3.77,0,6.71-1.13,8.83-3.39,2.11-2.26,3.17-5.39,3.17-9.39s-1.02-6.98-3.05-9.16c-2.04-2.19-5.02-3.28-8.94-3.28h-21.61v25.23h21.61Z"/>
            <path class="cls-3" d="M421.31,141.38c-3.89-2.38-5.83-6.77-5.83-13.18,0-7.62,3.24-12.97,9.73-16.07,6.49-3.09,15.69-4.64,27.61-4.64v-4.98c0-2.87-.74-5.09-2.21-6.68-1.47-1.58-4.13-2.38-7.98-2.38s-6.83.64-8.49,1.92c-1.66,1.28-2.49,2.87-2.49,4.75v1.58h-13.12c-.08-.45-.11-1.28-.11-2.49,0-5.13,2.21-9.16,6.62-12.11,4.41-2.94,10.28-4.41,17.59-4.41,7.92,0,13.86,1.62,17.82,4.87,3.96,3.24,5.94,7.88,5.94,13.92v28.4c0,1.36.38,2.36,1.13,3,.75.64,1.7.96,2.83.96h3.62v9.28c-2.42,1.13-5.24,1.7-8.49,1.7-2.94,0-5.39-.72-7.35-2.15-1.96-1.43-3.28-3.39-3.96-5.88h-.79c-4.45,5.43-10.79,8.15-19.01,8.15-4.83,0-9.18-1.19-13.07-3.56ZM448.97,130.24c2.56-2.56,3.85-6.03,3.85-10.41v-2.71c-7.32,0-13.05.7-17.2,2.09-4.15,1.4-6.22,3.94-6.22,7.64,0,4.83,3.02,7.24,9.05,7.24,4.45,0,7.96-1.28,10.52-3.85Z"/>
            <path class="cls-3" d="M480.09,137.25c-4.15-5.13-6.22-12.97-6.22-23.53s2.07-17.99,6.22-23.19c4.15-5.2,9.69-7.81,16.63-7.81,8.3,0,14.25,2.75,17.88,8.26h.68v-25h13.58v77.62h-11.2l-1.13-7.92h-.68c-1.96,3.02-4.53,5.32-7.69,6.9-3.17,1.58-6.68,2.38-10.52,2.38-7.54,0-13.39-2.56-17.54-7.69ZM511.99,128.59c2.19-3.13,3.28-7.79,3.28-13.97v-1.36c0-12.6-4.53-18.9-13.58-18.9-4.98,0-8.53,1.49-10.64,4.47-2.11,2.98-3.17,7.75-3.17,14.31v1.47c0,6.49,1.05,11.22,3.17,14.2,2.11,2.98,5.66,4.47,10.64,4.47,4.68,0,8.11-1.56,10.29-4.7Z"/>
            <path class="cls-3" d="M541.89,65.97h5.36c2.27,0,4.11,1.84,4.11,4.11v3.19c0,2.27-1.84,4.11-4.11,4.11h-5.36c-2.27,0-4.11-1.84-4.11-4.11v-3.19c0-2.27,1.84-4.11,4.11-4.11ZM537.78,84.07h13.58v59.51h-13.58v-59.51Z"/>
          </g>
        </g>
        <path class="cls-2" d="M64.21,0H22.33C9.99,0,0,10.02,0,22.36v10.45c0,12.34,9.99,22.34,22.33,22.34h41.88c12.33,0,22.35-9.99,22.35-22.34v-10.45c0-12.34-10.02-22.36-22.35-22.36ZM46.71,38.53h-4.84v-13.65c0-2.58-1.12-3.87-3.36-3.87-1.19,0-2.17.48-2.96,1.45-.8.96-1.2,2.2-1.2,3.71v12.35h-4.84v-13.65c0-2.58-1.12-3.87-3.35-3.87-1.19,0-2.18.48-2.99,1.45-.81.96-1.21,2.2-1.21,3.71v12.35h-4.84v-21.23h3.99l.41,2.83h.28c.7-1.03,1.57-1.84,2.6-2.43,1.04-.59,2.23-.89,3.58-.89,2.71,0,4.55,1.1,5.53,3.31h.32c.7-1,1.6-1.81,2.7-2.4,1.1-.61,2.33-.91,3.67-.91,2.02,0,3.61.57,4.76,1.7,1.16,1.13,1.74,2.94,1.74,5.41v14.61ZM62.36,37.44c-.96,2.73-2.08,4.81-3.35,6.26-1.26,1.45-3,2.18-5.21,2.18-1.13,0-1.98-.08-2.55-.22-.57-.16-.85-.22-.89-.22v-3.36h2.18c1.05,0,1.93-.28,2.65-.83.71-.54,1.26-1.45,1.67-2.71l-8.28-21.23h5.09l4,10.2c.29.79.63,1.85,1.02,3.21.4,1.35.64,2.25.75,2.68h.2c.11-.4.33-1.26.69-2.58.35-1.32.68-2.43.96-3.31l3.23-10.2h4.89l-7.07,20.13ZM77.63,30.91c-1.83,0-3.32-1.48-3.32-3.34s1.5-3.32,3.32-3.32,3.35,1.48,3.35,3.32-1.5,3.34-3.35,3.34Z"/>
      </g>
      <path class="cls-1" d="M580.13,103.4c-2.95-1.74-5.3-4.08-7.03-7.03-1.74-2.95-2.61-6.17-2.61-9.64s.87-6.69,2.61-9.64c1.74-2.95,4.08-5.3,7.03-7.03,2.95-1.74,6.17-2.61,9.64-2.61s6.69.87,9.64,2.61c2.95,1.74,5.3,4.08,7.03,7.03,1.74,2.95,2.61,6.17,2.61,9.64s-.87,6.69-2.61,9.64c-1.74,2.95-4.08,5.3-7.03,7.03-2.95,1.74-6.17,2.61-9.64,2.61s-6.69-.87-9.64-2.61ZM597.7,100.49c2.43-1.43,4.35-3.36,5.76-5.78,1.41-2.43,2.12-5.09,2.12-7.99s-.71-5.51-2.12-7.96-3.33-4.38-5.76-5.81c-2.43-1.43-5.07-2.15-7.93-2.15s-5.51.72-7.93,2.15c-2.43,1.43-4.35,3.37-5.76,5.81s-2.12,5.1-2.12,7.96.71,5.56,2.12,7.99c1.41,2.43,3.33,4.35,5.76,5.78,2.43,1.43,5.07,2.15,7.93,2.15s5.5-.71,7.93-2.15ZM582.41,95.47c-1.58-1.85-2.36-4.73-2.36-8.64s.79-6.84,2.36-8.69c1.58-1.85,4.03-2.77,7.36-2.77,3.01,0,5.2.75,6.6,2.25,1.39,1.5,2.09,3.76,2.09,6.76h-4.24c0-1.92-.32-3.3-.98-4.16-.65-.85-1.81-1.28-3.48-1.28-1.88,0-3.26.61-4.13,1.82-.87,1.21-1.3,3.23-1.3,6.06s.42,4.79,1.28,6c.85,1.21,2.24,1.82,4.16,1.82,1.63,0,2.82-.45,3.56-1.36.74-.9,1.11-2.26,1.11-4.07h4.02c0,2.61-.72,4.76-2.15,6.46-1.43,1.7-3.61,2.55-6.55,2.55-3.33,0-5.78-.92-7.36-2.77Z"/>
    </g>
  </g>
</svg>