<svg width="187" height="40" viewBox="0 0 187 40" fill="none" xmlns="http://www.w3.org/2000/svg">
<g clip-path="url(#clip0_295_7316)">
<path d="M60.3269 26.0747H69.0333V35.2565H66.7555L66.4813 33.3547C65.7316 34.1044 64.8891 34.6594 63.9537 35.0177C63.0182 35.3759 61.9192 35.5551 60.6498 35.5551C57.932 35.5551 55.8533 34.8253 54.4203 33.3658C52.9851 31.9062 52.2686 29.6749 52.2686 26.6718C52.2686 23.6687 53.0226 21.4794 54.533 20.0044C56.0434 18.5272 58.2062 17.7908 61.0257 17.7908C62.5273 17.7908 63.8807 18.0208 65.0925 18.4786C66.3022 18.9385 67.2597 19.6263 67.9696 20.5418C68.6772 21.4595 69.0333 22.594 69.0333 23.9452H65.7316C65.7316 22.8616 65.2893 22.0146 64.4048 21.4065C63.5202 20.7983 62.4189 20.4931 61.1031 20.4931C59.2345 20.4931 57.8413 20.9863 56.9236 21.9704C56.0058 22.9544 55.5481 24.4383 55.5481 26.4241V26.9239C55.5636 28.9761 56.0014 30.4777 56.8617 31.4286C57.7197 32.3795 59.0333 32.8549 60.8024 32.8549C62.3703 32.8549 63.5998 32.4967 64.4932 31.7802C65.3844 31.0637 65.8311 30.0531 65.8311 28.7528V28.7284H60.3269V26.077V26.0747Z" fill="#6445E8"/>
<path d="M71.6379 34.77C70.7799 34.2437 70.3486 33.2729 70.3486 31.8554C70.3486 30.1703 71.0651 28.9872 72.5003 28.3016C73.9355 27.6183 75.97 27.2755 78.606 27.2755V26.1743C78.606 25.5396 78.4424 25.0487 78.1173 24.697C77.7922 24.3476 77.204 24.1707 76.3526 24.1707C75.5012 24.1707 74.8422 24.3123 74.4751 24.5953C74.108 24.8784 73.9245 25.23 73.9245 25.6457V25.9951H71.0231C71.0054 25.8956 70.9988 25.7121 70.9988 25.4445C70.9988 24.31 71.4875 23.4188 72.4627 22.7665C73.438 22.1163 74.7361 21.7912 76.3526 21.7912C78.104 21.7912 79.4176 22.1495 80.2933 22.8682C81.1691 23.5847 81.6069 24.6108 81.6069 25.9465V32.2269C81.6069 32.5276 81.691 32.7488 81.8568 32.8903C82.0227 33.0318 82.2328 33.1026 82.4826 33.1026H83.2832V35.1548C82.748 35.4047 82.1244 35.5307 81.4057 35.5307C80.7555 35.5307 80.2137 35.3715 79.7803 35.0553C79.3469 34.7391 79.055 34.3056 78.9046 33.755H78.7299C77.7458 34.9558 76.3438 35.5573 74.526 35.5573C73.4579 35.5573 72.4959 35.2941 71.6357 34.77H71.6379ZM77.7569 32.3043C78.323 31.7382 78.6083 30.9708 78.6083 30.0022V29.4029C76.9895 29.4029 75.7224 29.5577 74.8046 29.8651C73.8869 30.1747 73.4291 30.7364 73.4291 31.5546C73.4291 32.6227 74.097 33.1557 75.4305 33.1557C76.4145 33.1557 77.1907 32.8726 77.7569 32.3043Z" fill="#6445E8"/>
<path d="M84.6372 33.8567C83.7195 32.7222 83.2617 30.9885 83.2617 28.6533C83.2617 26.318 83.7195 24.6749 84.6372 23.525C85.555 22.3751 86.7801 21.7979 88.3148 21.7979C90.1503 21.7979 91.4683 22.406 92.2688 23.6245H92.4192V18.096H95.4223V35.2609H92.9455L92.6956 33.5095H92.5452C92.1118 34.1774 91.5434 34.686 90.8446 35.0354C90.1436 35.3848 89.3674 35.5617 88.5182 35.5617C86.8508 35.5617 85.5572 34.9956 84.6394 33.8611L84.6372 33.8567ZM91.6938 31.9416C92.1781 31.2494 92.4192 30.2189 92.4192 28.8523V28.5515C92.4192 25.7651 91.4174 24.372 89.4161 24.372C88.3148 24.372 87.5297 24.7015 87.0631 25.3605C86.5965 26.0195 86.3621 27.0743 86.3621 28.525V28.8501C86.3621 30.2853 86.5965 31.3313 87.0631 31.9903C87.5297 32.6493 88.3148 32.9788 89.4161 32.9788C90.451 32.9788 91.2095 32.6338 91.6938 31.9394V31.9416Z" fill="#6445E8"/>
<path d="M97.1516 38.9982C96.4926 38.4564 96.1631 37.7001 96.1631 36.7338C96.1631 35.533 96.8464 34.6241 98.2153 34.0071C97.815 33.7904 97.4988 33.5162 97.2644 33.1822C97.03 32.8483 96.915 32.4569 96.915 32.0058C96.915 31.4219 97.1361 30.9376 97.5784 30.5551C98.0207 30.1725 98.558 29.9049 99.1927 29.7545C98.5934 29.372 98.129 28.8788 97.8039 28.2773C97.4789 27.6758 97.3152 27.0013 97.3152 26.2495C97.3152 24.8651 97.8106 23.7771 98.8035 22.9854C99.7964 22.1937 101.185 21.7979 102.97 21.7979C103.972 21.7979 104.838 21.9306 105.573 22.1981C106.106 21.8819 106.499 21.5192 106.749 21.1101C106.999 20.701 107.141 20.3052 107.174 19.9226H110.075C110.075 20.7895 109.834 21.5082 109.35 22.0743C108.865 22.6426 108.198 23.0164 107.348 23.1999C108.215 24.0181 108.649 25.0354 108.649 26.2517C108.649 27.636 108.164 28.7284 107.198 29.529C106.229 30.3295 104.872 30.7298 103.12 30.7298H101.068C100.719 30.7298 100.442 30.805 100.243 30.9553C100.044 31.1057 99.9424 31.3136 99.9424 31.5812C99.9424 31.8311 100.033 32.0367 100.217 32.1937C100.4 32.3529 100.65 32.4303 100.968 32.4303H106.723C107.707 32.4303 108.516 32.751 109.148 33.3945C109.783 34.0358 110.099 34.8496 110.099 35.8337C110.099 36.5679 109.907 37.238 109.524 37.8483C109.14 38.4564 108.596 38.9363 107.886 39.2879C107.176 39.6373 106.364 39.8142 105.447 39.8142H99.5421C98.6067 39.8142 97.8106 39.5422 97.1538 39.0005L97.1516 38.9982ZM105.444 37.6338C105.911 37.6338 106.302 37.5122 106.621 37.2711C106.937 37.0301 107.096 36.7072 107.096 36.3069C107.096 35.9067 106.964 35.5639 106.696 35.3317C106.428 35.0995 106.079 34.9823 105.646 34.9823H100.593C100.175 34.9823 99.8384 35.1084 99.5797 35.3583C99.321 35.6081 99.1905 35.9244 99.1905 36.3092C99.1905 36.6939 99.3188 37.0301 99.5797 37.2733C99.8384 37.5144 100.177 37.636 100.593 37.636H105.447L105.444 37.6338ZM104.993 27.9898C105.444 27.5807 105.67 27.0013 105.67 26.2517C105.67 25.502 105.444 24.9226 104.993 24.5135C104.542 24.1044 103.876 23.9009 102.992 23.9009C102.107 23.9009 101.442 24.1044 100.991 24.5135C100.539 24.9226 100.316 25.502 100.316 26.2517C100.316 27.0013 100.542 27.6028 100.991 28.0031C101.442 28.4034 102.107 28.6024 102.992 28.6024C103.876 28.6024 104.542 28.3989 104.993 27.9898Z" fill="#6445E8"/>
<path d="M111.307 33.881C110.272 32.7643 109.757 31.0283 109.757 28.6776C109.757 26.3268 110.279 24.5909 111.32 23.4741C112.362 22.3574 113.943 21.7979 116.062 21.7979C117.997 21.7979 119.443 22.3397 120.403 23.4233C121.362 24.5069 121.84 26.2008 121.84 28.5029V29.4029H112.809C112.859 30.7032 113.138 31.6586 113.647 32.2667C114.155 32.8748 114.969 33.18 116.086 33.18C116.92 33.18 117.596 32.9677 118.112 32.5409C118.629 32.1163 118.888 31.4861 118.888 30.6524H121.84C121.84 32.2711 121.305 33.4918 120.239 34.3189C119.171 35.1437 117.778 35.5573 116.059 35.5573C113.923 35.5573 112.34 34.9978 111.305 33.881H111.307ZM118.713 27.2755C118.713 25.2079 117.828 24.1729 116.062 24.1729C115.06 24.1729 114.306 24.4272 113.797 24.9359C113.288 25.4445 112.974 26.2251 112.859 27.2755H118.715H118.713Z" fill="#6445E8"/>
<path d="M124.309 34.6196C123.816 33.9938 123.571 33.2154 123.571 32.28V24.5489H121.97V22.0964H123.622L124.172 18.4188H126.574V22.0964H128.825V24.5489H126.574V31.9792C126.574 32.7289 126.932 33.1048 127.649 33.1048H128.825V35.157C128.558 35.2565 128.226 35.3494 127.823 35.4312C127.423 35.5153 127.056 35.5573 126.722 35.5573C125.605 35.5573 124.8 35.2455 124.307 34.6196H124.309Z" fill="#6445E8"/>
<path d="M129.584 18.0938H137.841C139.677 18.0938 141.07 18.5781 142.021 19.5445C142.972 20.513 143.447 21.8554 143.447 23.5736C143.447 25.2919 142.95 26.6475 141.959 27.6404C140.966 28.6333 139.535 29.1287 137.669 29.1287H132.791V35.2587H129.588V18.0938H129.584ZM137.565 26.3998C138.399 26.3998 139.049 26.1499 139.518 25.6502C139.984 25.1504 140.219 24.4582 140.219 23.5736C140.219 22.6891 139.993 22.0301 139.544 21.548C139.093 21.0637 138.434 20.8226 137.567 20.8226H132.788V26.402H137.567L137.565 26.3998Z" fill="#6445E8"/>
<path d="M145.084 34.77C144.224 34.2437 143.795 33.2729 143.795 31.8554C143.795 30.1703 144.511 28.9872 145.947 28.3016C147.382 27.6183 149.416 27.2755 152.052 27.2755V26.1743C152.052 25.5396 151.889 25.0487 151.564 24.697C151.239 24.3476 150.65 24.1707 149.799 24.1707C148.948 24.1707 148.289 24.3123 147.921 24.5953C147.554 24.8784 147.371 25.23 147.371 25.6457V25.9951H144.469C144.452 25.8956 144.445 25.7121 144.445 25.4445C144.445 24.31 144.934 23.4188 145.909 22.7665C146.884 22.1163 148.182 21.7912 149.799 21.7912C151.55 21.7912 152.864 22.1495 153.74 22.8682C154.615 23.5847 155.053 24.6108 155.053 25.9465V32.2269C155.053 32.5276 155.137 32.7488 155.303 32.8903C155.469 33.0318 155.679 33.1026 155.929 33.1026H156.729V35.1548C156.194 35.4047 155.571 35.5307 154.852 35.5307C154.202 35.5307 153.66 35.3715 153.227 35.0553C152.793 34.7391 152.501 34.3056 152.351 33.755H152.176C151.192 34.9558 149.79 35.5573 147.972 35.5573C146.904 35.5573 145.942 35.2941 145.082 34.77H145.084ZM151.201 32.3043C151.767 31.7382 152.052 30.9708 152.052 30.0022V29.4029C150.434 29.4029 149.166 29.5577 148.249 29.8651C147.331 30.1747 146.873 30.7364 146.873 31.5546C146.873 32.6227 147.541 33.1557 148.875 33.1557C149.859 33.1557 150.635 32.8726 151.201 32.3043Z" fill="#6445E8"/>
<path d="M158.083 33.8567C157.165 32.7222 156.707 30.9885 156.707 28.6533C156.707 26.318 157.165 24.6749 158.083 23.525C159 22.3751 160.225 21.7979 161.76 21.7979C163.596 21.7979 164.911 22.406 165.714 23.6245H165.864V18.096H168.868V35.2609H166.391L166.141 33.5095H165.991C165.557 34.1774 164.989 34.686 164.29 35.0354C163.589 35.3848 162.813 35.5617 161.964 35.5617C160.296 35.5617 159.002 34.9956 158.085 33.8611L158.083 33.8567ZM165.137 31.9416C165.621 31.2494 165.862 30.2189 165.862 28.8523V28.5515C165.862 25.7651 164.861 24.372 162.859 24.372C161.758 24.372 160.973 24.7015 160.506 25.3605C160.04 26.0195 159.805 27.0743 159.805 28.525V28.8501C159.805 30.2853 160.037 31.3313 160.506 31.9903C160.973 32.6493 161.758 32.9788 162.859 32.9788C163.894 32.9788 164.653 32.6338 165.135 31.9394L165.137 31.9416Z" fill="#6445E8"/>
<path d="M170.84 22.0964H173.843V35.2565H170.84V22.0964Z" fill="#6445E8"/>
<path d="M60.3269 26.0747H69.0333V35.2565H66.7555L66.4813 33.3547C65.7316 34.1044 64.8891 34.6594 63.9537 35.0177C63.0182 35.3759 61.9192 35.5551 60.6498 35.5551C57.932 35.5551 55.8533 34.8253 54.4203 33.3658C52.9851 31.9062 52.2686 29.6749 52.2686 26.6718C52.2686 23.6687 53.0226 21.4794 54.533 20.0044C56.0434 18.5272 58.2062 17.7908 61.0257 17.7908C62.5273 17.7908 63.8807 18.0208 65.0925 18.4786C66.3022 18.9385 67.2597 19.6263 67.9696 20.5418C68.6772 21.4595 69.0333 22.594 69.0333 23.9452H65.7316C65.7316 22.8616 65.2893 22.0146 64.4048 21.4065C63.5202 20.7983 62.4189 20.4931 61.1031 20.4931C59.2345 20.4931 57.8413 20.9863 56.9236 21.9704C56.0058 22.9544 55.5481 24.4383 55.5481 26.4241V26.9239C55.5636 28.9761 56.0014 30.4777 56.8617 31.4286C57.7197 32.3795 59.0333 32.8549 60.8024 32.8549C62.3703 32.8549 63.5998 32.4967 64.4932 31.7802C65.3844 31.0637 65.8311 30.0531 65.8311 28.7528V28.7284H60.3269V26.077V26.0747Z" fill="#6445E8"/>
<path d="M71.6379 34.77C70.7799 34.2437 70.3486 33.2729 70.3486 31.8554C70.3486 30.1703 71.0651 28.9872 72.5003 28.3016C73.9355 27.6183 75.97 27.2755 78.606 27.2755V26.1743C78.606 25.5396 78.4424 25.0487 78.1173 24.697C77.7922 24.3476 77.204 24.1707 76.3526 24.1707C75.5012 24.1707 74.8422 24.3123 74.4751 24.5953C74.108 24.8784 73.9245 25.23 73.9245 25.6457V25.9951H71.0231C71.0054 25.8956 70.9988 25.7121 70.9988 25.4445C70.9988 24.31 71.4875 23.4188 72.4627 22.7665C73.438 22.1163 74.7361 21.7912 76.3526 21.7912C78.104 21.7912 79.4176 22.1495 80.2933 22.8682C81.1691 23.5847 81.6069 24.6108 81.6069 25.9465V32.2269C81.6069 32.5276 81.691 32.7488 81.8568 32.8903C82.0227 33.0318 82.2328 33.1026 82.4826 33.1026H83.2832V35.1548C82.748 35.4047 82.1244 35.5307 81.4057 35.5307C80.7555 35.5307 80.2137 35.3715 79.7803 35.0553C79.3469 34.7391 79.055 34.3056 78.9046 33.755H78.7299C77.7458 34.9558 76.3438 35.5573 74.526 35.5573C73.4579 35.5573 72.4959 35.2941 71.6357 34.77H71.6379ZM77.7569 32.3043C78.323 31.7382 78.6083 30.9708 78.6083 30.0022V29.4029C76.9895 29.4029 75.7224 29.5577 74.8046 29.8651C73.8869 30.1747 73.4291 30.7364 73.4291 31.5546C73.4291 32.6227 74.097 33.1557 75.4305 33.1557C76.4145 33.1557 77.1907 32.8726 77.7569 32.3043Z" fill="#6445E8"/>
<path d="M84.6372 33.8567C83.7195 32.7222 83.2617 30.9885 83.2617 28.6533C83.2617 26.318 83.7195 24.6749 84.6372 23.525C85.555 22.3751 86.7801 21.7979 88.3148 21.7979C90.1503 21.7979 91.4683 22.406 92.2688 23.6245H92.4192V18.096H95.4223V35.2609H92.9455L92.6956 33.5095H92.5452C92.1118 34.1774 91.5434 34.686 90.8446 35.0354C90.1436 35.3848 89.3674 35.5617 88.5182 35.5617C86.8508 35.5617 85.5572 34.9956 84.6394 33.8611L84.6372 33.8567ZM91.6938 31.9416C92.1781 31.2494 92.4192 30.2189 92.4192 28.8523V28.5515C92.4192 25.7651 91.4174 24.372 89.4161 24.372C88.3148 24.372 87.5297 24.7015 87.0631 25.3605C86.5965 26.0195 86.3621 27.0743 86.3621 28.525V28.8501C86.3621 30.2853 86.5965 31.3313 87.0631 31.9903C87.5297 32.6493 88.3148 32.9788 89.4161 32.9788C90.451 32.9788 91.2095 32.6338 91.6938 31.9394V31.9416Z" fill="#6445E8"/>
<path d="M97.1516 38.9982C96.4926 38.4564 96.1631 37.7001 96.1631 36.7338C96.1631 35.533 96.8464 34.6241 98.2153 34.0071C97.815 33.7904 97.4988 33.5162 97.2644 33.1822C97.03 32.8483 96.915 32.4569 96.915 32.0058C96.915 31.4219 97.1361 30.9376 97.5784 30.5551C98.0207 30.1725 98.558 29.9049 99.1927 29.7545C98.5934 29.372 98.129 28.8788 97.8039 28.2773C97.4789 27.6758 97.3152 27.0013 97.3152 26.2495C97.3152 24.8651 97.8106 23.7771 98.8035 22.9854C99.7964 22.1937 101.185 21.7979 102.97 21.7979C103.972 21.7979 104.838 21.9306 105.573 22.1981C106.106 21.8819 106.499 21.5192 106.749 21.1101C106.999 20.701 107.141 20.3052 107.174 19.9226H110.075C110.075 20.7895 109.834 21.5082 109.35 22.0743C108.865 22.6426 108.198 23.0164 107.348 23.1999C108.215 24.0181 108.649 25.0354 108.649 26.2517C108.649 27.636 108.164 28.7284 107.198 29.529C106.229 30.3295 104.872 30.7298 103.12 30.7298H101.068C100.719 30.7298 100.442 30.805 100.243 30.9553C100.044 31.1057 99.9424 31.3136 99.9424 31.5812C99.9424 31.8311 100.033 32.0367 100.217 32.1937C100.4 32.3529 100.65 32.4303 100.968 32.4303H106.723C107.707 32.4303 108.516 32.751 109.148 33.3945C109.783 34.0358 110.099 34.8496 110.099 35.8337C110.099 36.5679 109.907 37.238 109.524 37.8483C109.14 38.4564 108.596 38.9363 107.886 39.2879C107.176 39.6373 106.364 39.8142 105.447 39.8142H99.5421C98.6067 39.8142 97.8106 39.5422 97.1538 39.0005L97.1516 38.9982ZM105.444 37.6338C105.911 37.6338 106.302 37.5122 106.621 37.2711C106.937 37.0301 107.096 36.7072 107.096 36.3069C107.096 35.9067 106.964 35.5639 106.696 35.3317C106.428 35.0995 106.079 34.9823 105.646 34.9823H100.593C100.175 34.9823 99.8384 35.1084 99.5797 35.3583C99.321 35.6081 99.1905 35.9244 99.1905 36.3092C99.1905 36.6939 99.3188 37.0301 99.5797 37.2733C99.8384 37.5144 100.177 37.636 100.593 37.636H105.447L105.444 37.6338ZM104.993 27.9898C105.444 27.5807 105.67 27.0013 105.67 26.2517C105.67 25.502 105.444 24.9226 104.993 24.5135C104.542 24.1044 103.876 23.9009 102.992 23.9009C102.107 23.9009 101.442 24.1044 100.991 24.5135C100.539 24.9226 100.316 25.502 100.316 26.2517C100.316 27.0013 100.542 27.6028 100.991 28.0031C101.442 28.4034 102.107 28.6024 102.992 28.6024C103.876 28.6024 104.542 28.3989 104.993 27.9898Z" fill="#6445E8"/>
<path d="M111.307 33.881C110.272 32.7643 109.757 31.0283 109.757 28.6776C109.757 26.3268 110.279 24.5909 111.32 23.4741C112.362 22.3574 113.943 21.7979 116.062 21.7979C117.997 21.7979 119.443 22.3397 120.403 23.4233C121.362 24.5069 121.84 26.2008 121.84 28.5029V29.4029H112.809C112.859 30.7032 113.138 31.6586 113.647 32.2667C114.155 32.8748 114.969 33.18 116.086 33.18C116.92 33.18 117.596 32.9677 118.112 32.5409C118.629 32.1163 118.888 31.4861 118.888 30.6524H121.84C121.84 32.2711 121.305 33.4918 120.239 34.3189C119.171 35.1437 117.778 35.5573 116.059 35.5573C113.923 35.5573 112.34 34.9978 111.305 33.881H111.307ZM118.713 27.2755C118.713 25.2079 117.828 24.1729 116.062 24.1729C115.06 24.1729 114.306 24.4272 113.797 24.9359C113.288 25.4445 112.974 26.2251 112.859 27.2755H118.715H118.713Z" fill="#6445E8"/>
<path d="M124.309 34.6196C123.816 33.9938 123.571 33.2154 123.571 32.28V24.5489H121.97V22.0964H123.622L124.172 18.0938H126.574V22.0964H128.825V24.5489H126.574V31.9792C126.574 32.7289 126.932 33.1048 127.649 33.1048H128.825V35.157C128.558 35.2565 128.226 35.3494 127.823 35.4312C127.423 35.5153 127.056 35.5573 126.722 35.5573C125.605 35.5573 124.8 35.2455 124.307 34.6196H124.309Z" fill="#6445E8"/>
<path d="M129.584 18.0938H137.841C139.677 18.0938 141.07 18.5781 142.021 19.5445C142.972 20.513 143.447 21.8554 143.447 23.5736C143.447 25.2919 142.95 26.6475 141.959 27.6404C140.966 28.6333 139.535 29.1287 137.669 29.1287H132.791V35.2587H129.588V18.0938H129.584ZM137.565 26.3998C138.399 26.3998 139.049 26.1499 139.518 25.6502C139.984 25.1504 140.219 24.4582 140.219 23.5736C140.219 22.6891 139.993 22.0301 139.544 21.548C139.093 21.0637 138.434 20.8226 137.567 20.8226H132.788V26.402H137.567L137.565 26.3998Z" fill="#FFBA43"/>
<path d="M145.084 34.77C144.224 34.2437 143.795 33.2729 143.795 31.8554C143.795 30.1703 144.511 28.9872 145.947 28.3016C147.382 27.6183 149.416 27.2755 152.052 27.2755V26.1743C152.052 25.5396 151.889 25.0487 151.564 24.697C151.239 24.3476 150.65 24.1707 149.799 24.1707C148.948 24.1707 148.289 24.3123 147.921 24.5953C147.554 24.8784 147.371 25.23 147.371 25.6457V25.9951H144.469C144.452 25.8956 144.445 25.7121 144.445 25.4445C144.445 24.31 144.934 23.4188 145.909 22.7665C146.884 22.1163 148.182 21.7912 149.799 21.7912C151.55 21.7912 152.864 22.1495 153.74 22.8682C154.615 23.5847 155.053 24.6108 155.053 25.9465V32.2269C155.053 32.5276 155.137 32.7488 155.303 32.8903C155.469 33.0318 155.679 33.1026 155.929 33.1026H156.729V35.1548C156.194 35.4047 155.571 35.5307 154.852 35.5307C154.202 35.5307 153.66 35.3715 153.227 35.0553C152.793 34.7391 152.501 34.3056 152.351 33.755H152.176C151.192 34.9558 149.79 35.5573 147.972 35.5573C146.904 35.5573 145.942 35.2941 145.082 34.77H145.084ZM151.201 32.3043C151.767 31.7382 152.052 30.9708 152.052 30.0022V29.4029C150.434 29.4029 149.166 29.5577 148.249 29.8651C147.331 30.1747 146.873 30.7364 146.873 31.5546C146.873 32.6227 147.541 33.1557 148.875 33.1557C149.859 33.1557 150.635 32.8726 151.201 32.3043Z" fill="#FFBA43"/>
<path d="M158.083 33.8567C157.165 32.7222 156.707 30.9885 156.707 28.6533C156.707 26.318 157.165 24.6749 158.083 23.525C159 22.3751 160.225 21.7979 161.76 21.7979C163.596 21.7979 164.911 22.406 165.714 23.6245H165.864V18.096H168.868V35.2609H166.391L166.141 33.5095H165.991C165.557 34.1774 164.989 34.686 164.29 35.0354C163.589 35.3848 162.813 35.5617 161.964 35.5617C160.296 35.5617 159.002 34.9956 158.085 33.8611L158.083 33.8567ZM165.137 31.9416C165.621 31.2494 165.862 30.2189 165.862 28.8523V28.5515C165.862 25.7651 164.861 24.372 162.859 24.372C161.758 24.372 160.973 24.7015 160.506 25.3605C160.04 26.0195 159.805 27.0743 159.805 28.525V28.8501C159.805 30.2853 160.037 31.3313 160.506 31.9903C160.973 32.6493 161.758 32.9788 162.859 32.9788C163.894 32.9788 164.653 32.6338 165.135 31.9394L165.137 31.9416Z" fill="#FFBA43"/>
<path d="M171.749 18.0938H172.934C173.436 18.0938 173.843 18.5007 173.843 19.0027V19.7081C173.843 20.2101 173.436 20.617 172.934 20.617H171.749C171.247 20.617 170.84 20.2101 170.84 19.7081V19.0027C170.84 18.5007 171.247 18.0938 171.749 18.0938ZM170.84 22.0964H173.843V35.2565H170.84V22.0964Z" fill="#FFBA43"/>
<path d="M66.1145 3.50509H56.8531C54.1242 3.50509 51.915 5.72092 51.915 8.4498V10.7607C51.915 13.4896 54.1242 15.701 56.8531 15.701H66.1145C68.8412 15.701 71.057 13.4918 71.057 10.7607V8.4498C71.057 5.72092 68.8412 3.50509 66.1145 3.50509ZM62.2445 12.0257H61.1742V9.00708C61.1742 8.43653 60.9265 8.15126 60.4312 8.15126C60.168 8.15126 59.9513 8.25741 59.7766 8.47192C59.5997 8.68421 59.5112 8.95843 59.5112 9.29235V12.0234H58.4409V9.00487C58.4409 8.43432 58.1932 8.14905 57.7001 8.14905C57.4369 8.14905 57.218 8.2552 57.0389 8.46971C56.8598 8.682 56.7713 8.95622 56.7713 9.29014V12.0212H55.701V7.32641H56.5833L56.674 7.95224H56.7359C56.8907 7.72446 57.0831 7.54534 57.3109 7.41486C57.5409 7.28439 57.804 7.21805 58.1026 7.21805C58.7019 7.21805 59.1088 7.4613 59.3255 7.95002H59.3962C59.551 7.72888 59.7501 7.54976 59.9933 7.41929C60.2366 7.28439 60.5086 7.21805 60.8049 7.21805C61.2516 7.21805 61.6032 7.3441 61.8575 7.59399C62.1141 7.84388 62.2423 8.24414 62.2423 8.79036V12.0212L62.2445 12.0257ZM65.7054 11.7824C65.4931 12.3861 65.2454 12.8461 64.9646 13.1667C64.6859 13.4874 64.3012 13.6488 63.8124 13.6488C63.5625 13.6488 63.3746 13.6311 63.2485 13.6002C63.1225 13.5648 63.0605 13.5515 63.0517 13.5515V12.8085H63.5338C63.766 12.8085 63.9606 12.7466 64.1198 12.6249C64.2768 12.5055 64.3985 12.3043 64.4891 12.0257L62.6581 7.33083H63.7837L64.6682 9.58647C64.7324 9.76117 64.8076 9.99558 64.8938 10.2963C64.9823 10.5949 65.0353 10.7939 65.0597 10.889H65.1039C65.1282 10.8005 65.1769 10.6104 65.2565 10.3184C65.3339 10.0265 65.4069 9.78107 65.4688 9.58647L66.1831 7.33083H67.2644L65.701 11.7824H65.7054ZM69.0822 10.3406C68.6775 10.3406 68.348 10.0133 68.348 9.60195C68.348 9.19062 68.6797 8.86776 69.0822 8.86776C69.4847 8.86776 69.823 9.19505 69.823 9.60195C69.823 10.0088 69.4913 10.3406 69.0822 10.3406Z" fill="#6445E8"/>
<path d="M27.6512 21.8023C27.6512 24.6882 26.2071 27.0234 24.4203 27.0234C22.6335 27.0234 21.1895 24.6882 21.1895 21.8023C21.1895 18.9164 22.6335 16.5856 24.4203 16.5856C26.2071 16.5856 27.6512 18.9208 27.6512 21.8023Z" fill="#6445E8"/>
<path d="M35.5044 22.0854C35.5044 24.6417 34.224 26.7094 32.6428 26.7094C31.0617 26.7094 29.7812 24.6395 29.7812 22.0854C29.7812 19.5312 31.0617 17.4613 32.6428 17.4613C34.224 17.4613 35.5044 19.5334 35.5044 22.0854Z" fill="#6445E8"/>
<path d="M44.969 22.406C44.969 28.1999 43.0783 32.605 39.2968 35.6302C36.632 37.7576 33.065 39.1353 28.5913 39.7634V31.3976C34.6904 30.8271 40.2278 28.525 40.2278 22.1495V22.1252C40.2278 16.6541 36.1521 14.1796 31.1367 13.2287C31.1521 13.1159 31.161 13.0053 31.161 12.8903C31.161 11.5613 30.0818 10.4821 28.7528 10.4821C27.4237 10.4821 26.4241 11.4839 26.3534 12.7444C23.5405 12.6647 20.7298 12.8859 18.4056 13.1866C14.8054 13.6532 11.6807 16.2494 10.5153 19.4427C10.3582 19.4095 10.1924 19.3941 10.0265 19.3941C8.69527 19.3941 7.61831 20.4732 7.61831 21.8023C7.61831 23.1313 8.69527 24.2149 10.0265 24.2149C10.1216 24.2149 10.2167 24.2105 10.3118 24.1995C11.276 27.6802 14.5688 30.5926 18.4056 31.088C20.5374 31.3644 23.0694 31.5723 25.6391 31.5436L18.5272 40.0022C13.0407 39.5356 8.75718 38.0495 5.6789 35.5374C1.89518 32.4524 0 28.0761 0 22.406C0 16.736 1.89518 12.364 5.67669 9.27687C6.97258 8.22202 8.48739 7.34409 10.2123 6.64971C5.80053 4.49801 6.18531 0 6.18531 0H12.7399C13.1822 3.25741 15.6479 4.76338 16.2318 5.0774C18.1468 4.79213 20.2322 4.6506 22.4834 4.6506C29.9115 4.6506 35.5086 6.19416 39.2946 9.27687C43.0761 12.364 44.9668 16.7382 44.9668 22.406H44.969Z" fill="#6445E8"/>
<path d="M180.206 26.3711C179.554 25.9863 179.034 25.4688 178.651 24.8165C178.267 24.1641 178.074 23.452 178.074 22.6847C178.074 21.9173 178.267 21.2052 178.651 20.5529C179.036 19.9005 179.554 19.3808 180.206 18.9982C180.858 18.6134 181.57 18.4211 182.338 18.4211C183.105 18.4211 183.817 18.6134 184.47 18.9982C185.122 19.383 185.642 19.9005 186.024 20.5529C186.409 21.2052 186.601 21.9173 186.601 22.6847C186.601 23.452 186.409 24.1641 186.024 24.8165C185.639 25.4688 185.122 25.9885 184.47 26.3711C183.817 26.7559 183.105 26.9483 182.338 26.9483C181.57 26.9483 180.858 26.7559 180.206 26.3711ZM184.091 25.7276C184.629 25.4113 185.053 24.9845 185.365 24.4494C185.677 23.912 185.834 23.3237 185.834 22.6824C185.834 22.0411 185.677 21.464 185.365 20.9222C185.053 20.3804 184.629 19.9536 184.091 19.6373C183.554 19.3211 182.97 19.1619 182.338 19.1619C181.705 19.1619 181.119 19.3211 180.584 19.6373C180.047 19.9536 179.622 20.3826 179.31 20.9222C178.999 21.4617 178.842 22.05 178.842 22.6824C178.842 23.3149 178.999 23.912 179.31 24.4494C179.622 24.9867 180.047 25.4113 180.584 25.7276C181.122 26.0438 181.705 26.203 182.338 26.203C182.97 26.203 183.554 26.046 184.091 25.7276ZM180.71 24.6174C180.361 24.2083 180.188 23.5714 180.188 22.7068C180.188 21.8421 180.363 21.1942 180.71 20.785C181.06 20.3759 181.601 20.1725 182.338 20.1725C183.003 20.1725 183.488 20.3383 183.797 20.6701C184.105 21.0018 184.26 21.5015 184.26 22.165H183.322C183.322 21.7404 183.251 21.4352 183.105 21.245C182.961 21.0571 182.705 20.962 182.336 20.962C181.92 20.962 181.615 21.0969 181.422 21.3644C181.23 21.632 181.135 22.0787 181.135 22.7046C181.135 23.3304 181.228 23.7638 181.418 24.0314C181.606 24.299 181.913 24.4339 182.338 24.4339C182.698 24.4339 182.961 24.3344 183.125 24.1331C183.289 23.9341 183.371 23.6333 183.371 23.2331H184.26C184.26 23.8103 184.1 24.2857 183.784 24.6617C183.468 25.0376 182.986 25.2256 182.336 25.2256C181.599 25.2256 181.057 25.0221 180.708 24.613L180.71 24.6174Z" fill="#FFB943"/>
</g>
<defs>
<clipPath id="clip0_295_7316">
<rect width="186.601" height="40" fill="white"/>
</clipPath>
</defs>
</svg>
