<svg width="140" height="28" viewBox="0 0 140 28" fill="none" xmlns="http://www.w3.org/2000/svg">
<g clip-path="url(#clip0_1213_3502)">
<path d="M45.2627 16.5648H51.7948V23.4535H50.0858L49.8801 22.0266C49.3177 22.5891 48.6855 23.0055 47.9837 23.2743C47.2819 23.5431 46.4573 23.6775 45.5049 23.6775C43.4659 23.6775 41.9063 23.13 40.8311 22.0349C39.7544 20.9399 39.2168 19.2658 39.2168 17.0127C39.2168 14.7596 39.7826 13.1171 40.9158 12.0104C42.049 10.9021 43.6716 10.3496 45.787 10.3496C46.9136 10.3496 47.9289 10.5222 48.8382 10.8656C49.7457 11.2107 50.4641 11.7267 50.9967 12.4136C51.5276 13.1021 51.7948 13.9533 51.7948 14.967H49.3176C49.3176 14.154 48.9858 13.5186 48.3222 13.0623C47.6585 12.606 46.8323 12.3771 45.8451 12.3771C44.4431 12.3771 43.3978 12.7471 42.7093 13.4854C42.0207 14.2237 41.6773 15.337 41.6773 16.8269V17.2019C41.6889 18.7415 42.0174 19.8681 42.6628 20.5815C43.3066 21.295 44.2921 21.6517 45.6194 21.6517C46.7958 21.6517 47.7182 21.3829 48.3885 20.8453C49.0572 20.3078 49.3923 19.5495 49.3923 18.574V18.5557H45.2627V16.5664V16.5648Z" fill="#6445E8"/>
<path d="M53.7485 23.0871C53.1048 22.6922 52.7812 21.9639 52.7812 20.9004C52.7812 19.6361 53.3188 18.7485 54.3956 18.2341C55.4724 17.7214 56.9988 17.4643 58.9765 17.4643V16.638C58.9765 16.1619 58.8537 15.7935 58.6098 15.5297C58.3659 15.2676 57.9246 15.1348 57.2858 15.1348C56.647 15.1348 56.1526 15.241 55.8772 15.4534C55.6018 15.6658 55.4641 15.9296 55.4641 16.2415V16.5036H53.2873C53.274 16.429 53.269 16.2913 53.269 16.0905C53.269 15.2394 53.6357 14.5707 54.3674 14.0813C55.0991 13.5935 56.073 13.3496 57.2858 13.3496C58.5999 13.3496 59.5854 13.6184 60.2424 14.1576C60.8994 14.6952 61.2279 15.465 61.2279 16.4671V21.1791C61.2279 21.4047 61.291 21.5707 61.4154 21.6768C61.5399 21.783 61.6975 21.8361 61.885 21.8361H62.4856V23.3758C62.0841 23.5633 61.6162 23.6579 61.077 23.6579C60.5892 23.6579 60.1827 23.5384 59.8575 23.3011C59.5323 23.0639 59.3133 22.7387 59.2005 22.3256H59.0694C58.3311 23.2265 57.2792 23.6778 55.9154 23.6778C55.114 23.6778 54.3923 23.4803 53.7469 23.0871H53.7485ZM58.3394 21.2372C58.7641 20.8124 58.9781 20.2367 58.9781 19.51V19.0604C57.7637 19.0604 56.813 19.1765 56.1244 19.4071C55.4359 19.6394 55.0924 20.0608 55.0924 20.6747C55.0924 21.4761 55.5935 21.8759 56.594 21.8759C57.3323 21.8759 57.9146 21.6636 58.3394 21.2372Z" fill="#6445E8"/>
<path d="M63.5027 22.4028C62.8141 21.5517 62.4707 20.2509 62.4707 18.4989C62.4707 16.7468 62.8141 15.5141 63.5027 14.6513C64.1912 13.7886 65.1104 13.3555 66.2618 13.3555C67.6389 13.3555 68.6278 13.8118 69.2284 14.726H69.3412V10.5781H71.5943V23.4564H69.7361L69.5486 22.1423H69.4358C69.1106 22.6434 68.6842 23.025 68.1599 23.2871C67.6339 23.5493 67.0516 23.682 66.4145 23.682C65.1635 23.682 64.1929 23.2573 63.5043 22.4061L63.5027 22.4028ZM68.797 20.966C69.1604 20.4467 69.3412 19.6735 69.3412 18.6482V18.4225C69.3412 16.332 68.5896 15.2868 67.0881 15.2868C66.2618 15.2868 65.6728 15.534 65.3228 16.0284C64.9727 16.5228 64.7968 17.3142 64.7968 18.4026V18.6465C64.7968 19.7233 64.9727 20.5081 65.3228 21.0025C65.6728 21.4969 66.2618 21.7441 67.0881 21.7441C67.8646 21.7441 68.4337 21.4853 68.797 20.9643V20.966Z" fill="#6445E8"/>
<path d="M72.8901 26.261C72.3956 25.8545 72.1484 25.2871 72.1484 24.562C72.1484 23.6611 72.6611 22.9792 73.6881 22.5163C73.3878 22.3537 73.1506 22.148 72.9747 21.8974C72.7988 21.6469 72.7125 21.3532 72.7125 21.0148C72.7125 20.5768 72.8785 20.2134 73.2103 19.9264C73.5421 19.6393 73.9453 19.4386 74.4215 19.3258C73.9718 19.0387 73.6234 18.6687 73.3795 18.2175C73.1356 17.7662 73.0128 17.2601 73.0128 16.696C73.0128 15.6574 73.3845 14.8411 74.1295 14.2471C74.8744 13.6532 75.9163 13.3562 77.2553 13.3562C78.0069 13.3562 78.6572 13.4557 79.2081 13.6565C79.6079 13.4192 79.9033 13.1471 80.0907 12.8402C80.2782 12.5332 80.3844 12.2363 80.4093 11.9492H82.5861C82.5861 12.5996 82.4053 13.1388 82.0419 13.5636C81.6785 13.99 81.1775 14.2704 80.5404 14.4081C81.1908 15.022 81.5159 15.7852 81.5159 16.6977C81.5159 17.7363 81.1526 18.5559 80.4276 19.1565C79.7008 19.7571 78.6821 20.0574 77.3681 20.0574H75.8284C75.5663 20.0574 75.3589 20.1139 75.2096 20.2267C75.0602 20.3395 74.9839 20.4955 74.9839 20.6962C74.9839 20.8837 75.0519 21.038 75.1896 21.1558C75.3274 21.2753 75.5148 21.3333 75.7537 21.3333H80.0708C80.8092 21.3333 81.4164 21.5739 81.8909 22.0567C82.3671 22.5379 82.6043 23.1484 82.6043 23.8867C82.6043 24.4376 82.46 24.9403 82.173 25.3982C81.8843 25.8545 81.4761 26.2145 80.9435 26.4783C80.411 26.7405 79.8021 26.8732 79.1135 26.8732H74.6836C73.9818 26.8732 73.3845 26.6691 72.8917 26.2626L72.8901 26.261ZM79.1119 25.2373C79.4619 25.2373 79.7556 25.146 79.9945 24.9652C80.2318 24.7843 80.3512 24.5421 80.3512 24.2418C80.3512 23.9415 80.2517 23.6843 80.0509 23.5101C79.8502 23.3359 79.588 23.248 79.2628 23.248H75.4717C75.1581 23.248 74.9059 23.3425 74.7118 23.53C74.5177 23.7175 74.4198 23.9548 74.4198 24.2435C74.4198 24.5322 74.516 24.7843 74.7118 24.9668C74.9059 25.1477 75.1598 25.2389 75.4717 25.2389H79.1135L79.1119 25.2373ZM78.7734 18.0018C79.1119 17.6948 79.2811 17.2601 79.2811 16.6977C79.2811 16.1352 79.1119 15.7005 78.7734 15.3936C78.4349 15.0867 77.9355 14.934 77.2719 14.934C76.6082 14.934 76.1088 15.0867 75.7703 15.3936C75.4319 15.7005 75.2643 16.1352 75.2643 16.6977C75.2643 17.2601 75.4335 17.7114 75.7703 18.0117C76.1088 18.312 76.6082 18.4613 77.2719 18.4613C77.9355 18.4613 78.4349 18.3087 78.7734 18.0018Z" fill="#6445E8"/>
<path d="M83.5127 22.423C82.7362 21.5851 82.3496 20.2827 82.3496 18.519C82.3496 16.7553 82.7412 15.4529 83.5226 14.6151C84.3041 13.7772 85.4904 13.3574 87.0798 13.3574C88.5316 13.3574 89.6166 13.7639 90.3367 14.5769C91.0568 15.3899 91.4152 16.6608 91.4152 18.3879V19.0632H84.6392C84.6774 20.0388 84.8864 20.7555 85.268 21.2118C85.6496 21.6681 86.2602 21.897 87.0981 21.897C87.7236 21.897 88.2313 21.7377 88.6178 21.4175C89.0061 21.099 89.2002 20.6261 89.2002 20.0006H91.4152C91.4152 21.2151 91.0136 22.131 90.2139 22.7515C89.4126 23.3703 88.3673 23.6806 87.0782 23.6806C85.4754 23.6806 84.2875 23.2608 83.511 22.423H83.5127ZM89.0691 17.4671C89.0691 15.9158 88.4055 15.1393 87.0798 15.1393C86.3282 15.1393 85.7625 15.3301 85.3809 15.7117C84.9993 16.0933 84.7637 16.679 84.6774 17.4671H89.0708H89.0691Z" fill="#6445E8"/>
<path d="M93.2651 22.9771C92.8952 22.5076 92.711 21.9236 92.711 21.2218V15.4214H91.5098V13.5814H92.7491L93.1623 10.8223H94.9641V13.5814H96.6531V15.4214H94.9641V20.9961C94.9641 21.5586 95.2329 21.8406 95.7704 21.8406H96.6531V23.3803C96.4523 23.455 96.2035 23.5247 95.9015 23.586C95.6012 23.6491 95.3258 23.6806 95.0753 23.6806C94.2374 23.6806 93.6335 23.4467 93.2635 22.9771H93.2651Z" fill="#6445E8"/>
<path d="M97.2207 10.5742H103.416C104.793 10.5742 105.838 10.9376 106.552 11.6626C107.265 12.3893 107.622 13.3964 107.622 14.6856C107.622 15.9747 107.249 16.9918 106.505 17.7367C105.76 18.4817 104.687 18.8533 103.287 18.8533H99.6265V23.4525H97.224V10.5742H97.2207ZM103.209 16.806C103.834 16.806 104.322 16.6185 104.674 16.2435C105.024 15.8685 105.2 15.3492 105.2 14.6856C105.2 14.0219 105.03 13.5275 104.693 13.1658C104.355 12.8024 103.861 12.6216 103.21 12.6216H99.6248V16.8076H103.21L103.209 16.806Z" fill="#6445E8"/>
<path d="M108.85 23.0871C108.205 22.6922 107.883 21.9639 107.883 20.9004C107.883 19.6361 108.42 18.7485 109.497 18.2341C110.574 17.7214 112.1 17.4643 114.078 17.4643V16.638C114.078 16.1619 113.955 15.7935 113.711 15.5297C113.467 15.2676 113.026 15.1348 112.387 15.1348C111.749 15.1348 111.254 15.241 110.979 15.4534C110.703 15.6658 110.566 15.9296 110.566 16.2415V16.5036H108.389C108.376 16.429 108.371 16.2913 108.371 16.0905C108.371 15.2394 108.737 14.5707 109.469 14.0813C110.201 13.5935 111.175 13.3496 112.387 13.3496C113.701 13.3496 114.687 13.6184 115.344 14.1576C116.001 14.6952 116.33 15.465 116.33 16.4671V21.1791C116.33 21.4047 116.393 21.5707 116.517 21.6768C116.641 21.783 116.799 21.8361 116.987 21.8361H117.587V23.3758C117.186 23.5633 116.718 23.6579 116.179 23.6579C115.691 23.6579 115.284 23.5384 114.959 23.3011C114.634 23.0639 114.415 22.7387 114.302 22.3256H114.171C113.433 23.2265 112.381 23.6778 111.017 23.6778C110.216 23.6778 109.494 23.4803 108.848 23.0871H108.85ZM113.439 21.2372C113.864 20.8124 114.078 20.2367 114.078 19.51V19.0604C112.864 19.0604 111.913 19.1765 111.224 19.4071C110.536 19.6394 110.192 20.0608 110.192 20.6747C110.192 21.4761 110.693 21.8759 111.694 21.8759C112.432 21.8759 113.015 21.6636 113.439 21.2372Z" fill="#6445E8"/>
<path d="M118.602 22.4009C117.914 21.5497 117.57 20.249 117.57 18.4969C117.57 16.7449 117.914 15.5121 118.602 14.6494C119.291 13.7866 120.21 13.3536 121.361 13.3536C122.739 13.3536 123.726 13.8098 124.328 14.724H124.441V10.5762H126.694V23.4544H124.836L124.648 22.1404H124.535C124.21 22.6414 123.784 23.023 123.26 23.2852C122.734 23.5473 122.151 23.6801 121.514 23.6801C120.263 23.6801 119.292 23.2553 118.604 22.4042L118.602 22.4009ZM123.895 20.9641C124.258 20.4447 124.439 19.6716 124.439 18.6462V18.4206C124.439 16.3301 123.688 15.2848 122.186 15.2848C121.36 15.2848 120.771 15.532 120.421 16.0265C120.071 16.5209 119.895 17.3123 119.895 18.4007V18.6446C119.895 19.7214 120.069 20.5061 120.421 21.0006C120.771 21.495 121.36 21.7422 122.186 21.7422C122.963 21.7422 123.532 21.4834 123.893 20.9624L123.895 20.9641Z" fill="#6445E8"/>
<path d="M128.174 13.5762H130.427V23.4497H128.174V13.5762Z" fill="#6445E8"/>
<path d="M45.2627 16.5648H51.7948V23.4535H50.0858L49.8801 22.0266C49.3177 22.5891 48.6855 23.0055 47.9837 23.2743C47.2819 23.5431 46.4573 23.6775 45.5049 23.6775C43.4659 23.6775 41.9063 23.13 40.8311 22.0349C39.7544 20.9399 39.2168 19.2658 39.2168 17.0127C39.2168 14.7596 39.7826 13.1171 40.9158 12.0104C42.049 10.9021 43.6716 10.3496 45.787 10.3496C46.9136 10.3496 47.9289 10.5222 48.8382 10.8656C49.7457 11.2107 50.4641 11.7267 50.9967 12.4136C51.5276 13.1021 51.7948 13.9533 51.7948 14.967H49.3176C49.3176 14.154 48.9858 13.5186 48.3222 13.0623C47.6585 12.606 46.8323 12.3771 45.8451 12.3771C44.4431 12.3771 43.3978 12.7471 42.7093 13.4854C42.0207 14.2237 41.6773 15.337 41.6773 16.8269V17.2019C41.6889 18.7415 42.0174 19.8681 42.6628 20.5815C43.3066 21.295 44.2921 21.6517 45.6194 21.6517C46.7958 21.6517 47.7182 21.3829 48.3885 20.8453C49.0572 20.3078 49.3923 19.5495 49.3923 18.574V18.5557H45.2627V16.5664V16.5648Z" fill="#6445E8"/>
<path d="M53.7485 23.0871C53.1048 22.6922 52.7812 21.9639 52.7812 20.9004C52.7812 19.6361 53.3188 18.7485 54.3956 18.2341C55.4724 17.7214 56.9988 17.4643 58.9765 17.4643V16.638C58.9765 16.1619 58.8537 15.7935 58.6098 15.5297C58.3659 15.2676 57.9246 15.1348 57.2858 15.1348C56.647 15.1348 56.1526 15.241 55.8772 15.4534C55.6018 15.6658 55.4641 15.9296 55.4641 16.2415V16.5036H53.2873C53.274 16.429 53.269 16.2913 53.269 16.0905C53.269 15.2394 53.6357 14.5707 54.3674 14.0813C55.0991 13.5935 56.073 13.3496 57.2858 13.3496C58.5999 13.3496 59.5854 13.6184 60.2424 14.1576C60.8994 14.6952 61.2279 15.465 61.2279 16.4671V21.1791C61.2279 21.4047 61.291 21.5707 61.4154 21.6768C61.5399 21.783 61.6975 21.8361 61.885 21.8361H62.4856V23.3758C62.0841 23.5633 61.6162 23.6579 61.077 23.6579C60.5892 23.6579 60.1827 23.5384 59.8575 23.3011C59.5323 23.0639 59.3133 22.7387 59.2005 22.3256H59.0694C58.3311 23.2265 57.2792 23.6778 55.9154 23.6778C55.114 23.6778 54.3923 23.4803 53.7469 23.0871H53.7485ZM58.3394 21.2372C58.7641 20.8124 58.9781 20.2367 58.9781 19.51V19.0604C57.7637 19.0604 56.813 19.1765 56.1244 19.4071C55.4359 19.6394 55.0924 20.0608 55.0924 20.6747C55.0924 21.4761 55.5935 21.8759 56.594 21.8759C57.3323 21.8759 57.9146 21.6636 58.3394 21.2372Z" fill="#6445E8"/>
<path d="M63.5027 22.4028C62.8141 21.5517 62.4707 20.2509 62.4707 18.4989C62.4707 16.7468 62.8141 15.5141 63.5027 14.6513C64.1912 13.7886 65.1104 13.3555 66.2618 13.3555C67.6389 13.3555 68.6278 13.8118 69.2284 14.726H69.3412V10.5781H71.5943V23.4564H69.7361L69.5486 22.1423H69.4358C69.1106 22.6434 68.6842 23.025 68.1599 23.2871C67.6339 23.5493 67.0516 23.682 66.4145 23.682C65.1635 23.682 64.1929 23.2573 63.5043 22.4061L63.5027 22.4028ZM68.797 20.966C69.1604 20.4467 69.3412 19.6735 69.3412 18.6482V18.4225C69.3412 16.332 68.5896 15.2868 67.0881 15.2868C66.2618 15.2868 65.6728 15.534 65.3228 16.0284C64.9727 16.5228 64.7968 17.3142 64.7968 18.4026V18.6465C64.7968 19.7233 64.9727 20.5081 65.3228 21.0025C65.6728 21.4969 66.2618 21.7441 67.0881 21.7441C67.8646 21.7441 68.4337 21.4853 68.797 20.9643V20.966Z" fill="#6445E8"/>
<path d="M72.8901 26.261C72.3956 25.8545 72.1484 25.2871 72.1484 24.562C72.1484 23.6611 72.6611 22.9792 73.6881 22.5163C73.3878 22.3537 73.1506 22.148 72.9747 21.8974C72.7988 21.6469 72.7125 21.3532 72.7125 21.0148C72.7125 20.5768 72.8785 20.2134 73.2103 19.9264C73.5421 19.6393 73.9453 19.4386 74.4215 19.3258C73.9718 19.0387 73.6234 18.6687 73.3795 18.2175C73.1356 17.7662 73.0128 17.2601 73.0128 16.696C73.0128 15.6574 73.3845 14.8411 74.1295 14.2471C74.8744 13.6532 75.9163 13.3562 77.2553 13.3562C78.0069 13.3562 78.6572 13.4557 79.2081 13.6565C79.6079 13.4192 79.9033 13.1471 80.0907 12.8402C80.2782 12.5332 80.3844 12.2363 80.4093 11.9492H82.5861C82.5861 12.5996 82.4053 13.1388 82.0419 13.5636C81.6785 13.99 81.1775 14.2704 80.5404 14.4081C81.1908 15.022 81.5159 15.7852 81.5159 16.6977C81.5159 17.7363 81.1526 18.5559 80.4276 19.1565C79.7008 19.7571 78.6821 20.0574 77.3681 20.0574H75.8284C75.5663 20.0574 75.3589 20.1139 75.2096 20.2267C75.0602 20.3395 74.9839 20.4955 74.9839 20.6962C74.9839 20.8837 75.0519 21.038 75.1896 21.1558C75.3274 21.2753 75.5148 21.3333 75.7537 21.3333H80.0708C80.8092 21.3333 81.4164 21.5739 81.8909 22.0567C82.3671 22.5379 82.6043 23.1484 82.6043 23.8867C82.6043 24.4376 82.46 24.9403 82.173 25.3982C81.8843 25.8545 81.4761 26.2145 80.9435 26.4783C80.411 26.7405 79.8021 26.8732 79.1135 26.8732H74.6836C73.9818 26.8732 73.3845 26.6691 72.8917 26.2626L72.8901 26.261ZM79.1119 25.2373C79.4619 25.2373 79.7556 25.146 79.9945 24.9652C80.2318 24.7843 80.3512 24.5421 80.3512 24.2418C80.3512 23.9415 80.2517 23.6843 80.0509 23.5101C79.8502 23.3359 79.588 23.248 79.2628 23.248H75.4717C75.1581 23.248 74.9059 23.3425 74.7118 23.53C74.5177 23.7175 74.4198 23.9548 74.4198 24.2435C74.4198 24.5322 74.516 24.7843 74.7118 24.9668C74.9059 25.1477 75.1598 25.2389 75.4717 25.2389H79.1135L79.1119 25.2373ZM78.7734 18.0018C79.1119 17.6948 79.2811 17.2601 79.2811 16.6977C79.2811 16.1352 79.1119 15.7005 78.7734 15.3936C78.4349 15.0867 77.9355 14.934 77.2719 14.934C76.6082 14.934 76.1088 15.0867 75.7703 15.3936C75.4319 15.7005 75.2643 16.1352 75.2643 16.6977C75.2643 17.2601 75.4335 17.7114 75.7703 18.0117C76.1088 18.312 76.6082 18.4613 77.2719 18.4613C77.9355 18.4613 78.4349 18.3087 78.7734 18.0018Z" fill="#6445E8"/>
<path d="M83.5127 22.423C82.7362 21.5851 82.3496 20.2827 82.3496 18.519C82.3496 16.7553 82.7412 15.4529 83.5226 14.6151C84.3041 13.7772 85.4904 13.3574 87.0798 13.3574C88.5316 13.3574 89.6166 13.7639 90.3367 14.5769C91.0568 15.3899 91.4152 16.6608 91.4152 18.3879V19.0632H84.6392C84.6774 20.0388 84.8864 20.7555 85.268 21.2118C85.6496 21.6681 86.2602 21.897 87.0981 21.897C87.7236 21.897 88.2313 21.7377 88.6178 21.4175C89.0061 21.099 89.2002 20.6261 89.2002 20.0006H91.4152C91.4152 21.2151 91.0136 22.131 90.2139 22.7515C89.4126 23.3703 88.3673 23.6806 87.0782 23.6806C85.4754 23.6806 84.2875 23.2608 83.511 22.423H83.5127ZM89.0691 17.4671C89.0691 15.9158 88.4055 15.1393 87.0798 15.1393C86.3282 15.1393 85.7625 15.3301 85.3809 15.7117C84.9993 16.0933 84.7637 16.679 84.6774 17.4671H89.0708H89.0691Z" fill="#6445E8"/>
<path d="M93.2651 22.9769C92.8952 22.5074 92.711 21.9233 92.711 21.2215V15.4212H91.5098V13.5812H92.7491L93.1623 10.5781H94.9641V13.5812H96.6531V15.4212H94.9641V20.9959C94.9641 21.5583 95.2329 21.8404 95.7704 21.8404H96.6531V23.3801C96.4523 23.4547 96.2035 23.5244 95.9015 23.5858C95.6012 23.6488 95.3258 23.6804 95.0753 23.6804C94.2374 23.6804 93.6335 23.4464 93.2635 22.9769H93.2651Z" fill="#6445E8"/>
<path d="M97.2207 10.5742H103.416C104.793 10.5742 105.838 10.9376 106.552 11.6626C107.265 12.3893 107.622 13.3964 107.622 14.6856C107.622 15.9747 107.249 16.9918 106.505 17.7367C105.76 18.4817 104.687 18.8533 103.287 18.8533H99.6265V23.4525H97.224V10.5742H97.2207ZM103.209 16.806C103.834 16.806 104.322 16.6185 104.674 16.2435C105.024 15.8685 105.2 15.3492 105.2 14.6856C105.2 14.0219 105.03 13.5275 104.693 13.1658C104.355 12.8024 103.861 12.6216 103.21 12.6216H99.6248V16.8076H103.21L103.209 16.806Z" fill="#FFBA43"/>
<path d="M108.85 23.0871C108.205 22.6922 107.883 21.9639 107.883 20.9004C107.883 19.6361 108.42 18.7485 109.497 18.2341C110.574 17.7214 112.1 17.4643 114.078 17.4643V16.638C114.078 16.1619 113.955 15.7935 113.711 15.5297C113.467 15.2676 113.026 15.1348 112.387 15.1348C111.749 15.1348 111.254 15.241 110.979 15.4534C110.703 15.6658 110.566 15.9296 110.566 16.2415V16.5036H108.389C108.376 16.429 108.371 16.2913 108.371 16.0905C108.371 15.2394 108.737 14.5707 109.469 14.0813C110.201 13.5935 111.175 13.3496 112.387 13.3496C113.701 13.3496 114.687 13.6184 115.344 14.1576C116.001 14.6952 116.33 15.465 116.33 16.4671V21.1791C116.33 21.4047 116.393 21.5707 116.517 21.6768C116.641 21.783 116.799 21.8361 116.987 21.8361H117.587V23.3758C117.186 23.5633 116.718 23.6579 116.179 23.6579C115.691 23.6579 115.284 23.5384 114.959 23.3011C114.634 23.0639 114.415 22.7387 114.302 22.3256H114.171C113.433 23.2265 112.381 23.6778 111.017 23.6778C110.216 23.6778 109.494 23.4803 108.848 23.0871H108.85ZM113.439 21.2372C113.864 20.8124 114.078 20.2367 114.078 19.51V19.0604C112.864 19.0604 111.913 19.1765 111.224 19.4071C110.536 19.6394 110.192 20.0608 110.192 20.6747C110.192 21.4761 110.693 21.8759 111.694 21.8759C112.432 21.8759 113.015 21.6636 113.439 21.2372Z" fill="#FFBA43"/>
<path d="M118.602 22.4009C117.914 21.5497 117.57 20.249 117.57 18.4969C117.57 16.7449 117.914 15.5121 118.602 14.6494C119.291 13.7866 120.21 13.3536 121.361 13.3536C122.739 13.3536 123.726 13.8098 124.328 14.724H124.441V10.5762H126.694V23.4544H124.836L124.648 22.1404H124.535C124.21 22.6414 123.784 23.023 123.26 23.2852C122.734 23.5473 122.151 23.6801 121.514 23.6801C120.263 23.6801 119.292 23.2553 118.604 22.4042L118.602 22.4009ZM123.895 20.9641C124.258 20.4447 124.439 19.6716 124.439 18.6462V18.4206C124.439 16.3301 123.688 15.2848 122.186 15.2848C121.36 15.2848 120.771 15.532 120.421 16.0265C120.071 16.5209 119.895 17.3123 119.895 18.4007V18.6446C119.895 19.7214 120.069 20.5061 120.421 21.0006C120.771 21.495 121.36 21.7422 122.186 21.7422C122.963 21.7422 123.532 21.4834 123.893 20.9624L123.895 20.9641Z" fill="#FFBA43"/>
<path d="M128.856 10.5742H129.745C130.122 10.5742 130.427 10.8795 130.427 11.2561V11.7854C130.427 12.162 130.122 12.4673 129.745 12.4673H128.856C128.479 12.4673 128.174 12.162 128.174 11.7854V11.2561C128.174 10.8795 128.479 10.5742 128.856 10.5742ZM128.174 13.5773H130.427V23.4508H128.174V13.5773Z" fill="#FFBA43"/>
<path d="M49.6026 -0.369141H42.6541C40.6067 -0.369141 38.9492 1.29332 38.9492 3.3407V5.0745C38.9492 7.12188 40.6067 8.78102 42.6541 8.78102H49.6026C51.6483 8.78102 53.3108 7.12354 53.3108 5.0745V3.3407C53.3108 1.29332 51.6483 -0.369141 49.6026 -0.369141ZM46.6991 6.02353H45.896V3.7588C45.896 3.33074 45.7102 3.11672 45.3386 3.11672C45.1411 3.11672 44.9785 3.19635 44.8475 3.35729C44.7147 3.51657 44.6484 3.7223 44.6484 3.97283V6.02187H43.8453V3.75714C43.8453 3.32909 43.6595 3.11506 43.2895 3.11506C43.0921 3.11506 42.9278 3.19469 42.7934 3.35563C42.6591 3.51491 42.5927 3.72064 42.5927 3.97117V6.02021H41.7897V2.49786H42.4517L42.5197 2.96739H42.5661C42.6823 2.7965 42.8266 2.66211 42.9975 2.56422C43.1701 2.46633 43.3675 2.41656 43.5915 2.41656C44.0411 2.41656 44.3464 2.59906 44.509 2.96573H44.5621C44.6782 2.79982 44.8276 2.66543 45.0101 2.56754C45.1926 2.46633 45.3966 2.41656 45.619 2.41656C45.9541 2.41656 46.2179 2.51113 46.4087 2.69861C46.6012 2.88609 46.6974 3.1864 46.6974 3.59621V6.02021L46.6991 6.02353ZM49.2956 5.84103C49.1363 6.29397 48.9505 6.63907 48.7398 6.87965C48.5308 7.12022 48.2421 7.24134 47.8754 7.24134C47.6879 7.24134 47.5469 7.22807 47.4523 7.20484C47.3578 7.17829 47.3113 7.16834 47.3047 7.16834V6.61087H47.6663C47.8406 6.61087 47.9866 6.56441 48.106 6.47316C48.2238 6.38356 48.3151 6.23258 48.3831 6.02353L47.0093 2.50117H47.8538L48.5175 4.1935C48.5656 4.32457 48.622 4.50044 48.6867 4.72608C48.7531 4.95007 48.7929 5.09939 48.8112 5.17073H48.8443C48.8626 5.10437 48.8991 4.96168 48.9588 4.74267C49.0169 4.52367 49.0716 4.3395 49.1181 4.1935L49.654 2.50117H50.4653L49.2923 5.84103H49.2956ZM51.8291 4.75926C51.5255 4.75926 51.2783 4.51371 51.2783 4.20511C51.2783 3.89651 51.5272 3.65428 51.8291 3.65428C52.1311 3.65428 52.3849 3.89983 52.3849 4.20511C52.3849 4.51039 52.1361 4.75926 51.8291 4.75926Z" fill="#6445E8"/>
<path d="M20.7445 13.3592C20.7445 15.5244 19.6611 17.2765 18.3205 17.2765C16.9799 17.2765 15.8965 15.5244 15.8965 13.3592C15.8965 11.194 16.9799 9.44531 18.3205 9.44531C19.6611 9.44531 20.7445 11.1974 20.7445 13.3592Z" fill="#6445E8"/>
<path d="M26.6357 13.5708C26.6357 15.4888 25.675 17.0401 24.4887 17.0401C23.3024 17.0401 22.3418 15.4871 22.3418 13.5708C22.3418 11.6545 23.3024 10.1016 24.4887 10.1016C25.675 10.1016 26.6357 11.6562 26.6357 13.5708Z" fill="#6445E8"/>
<path d="M33.7386 13.8104C33.7386 18.1574 32.3201 21.4624 29.4829 23.7321C27.4837 25.3282 24.8075 26.3618 21.451 26.833V20.5565C26.0269 20.1284 30.1814 18.4013 30.1814 13.618V13.5997C30.1814 9.49499 27.1236 7.63841 23.3607 6.92498C23.3723 6.84037 23.379 6.75741 23.379 6.67113C23.379 5.67399 22.5693 4.86433 21.5722 4.86433C20.575 4.86433 19.8251 5.61592 19.772 6.56163C17.6616 6.5019 15.5528 6.66782 13.809 6.89346C11.108 7.24354 8.76358 9.19137 7.88922 11.5872C7.77142 11.5623 7.64698 11.5507 7.52255 11.5507C6.52374 11.5507 5.71574 12.3603 5.71574 13.3575C5.71574 14.3546 6.52374 15.1676 7.52255 15.1676C7.59389 15.1676 7.66523 15.1643 7.73658 15.156C8.45996 17.7675 10.9304 19.9526 13.809 20.3242C15.4084 20.5316 17.3082 20.6876 19.2361 20.666L13.9003 27.0122C9.78396 26.6621 6.5702 25.5472 4.26067 23.6624C1.42188 21.3479 0 18.0645 0 13.8104C0 9.55638 1.42188 6.27626 4.25902 3.9601C5.23127 3.16869 6.36778 2.51001 7.66191 1.98904C4.35193 0.374693 4.64062 -3 4.64062 -3H9.55831C9.89014 -0.556085 11.7401 0.57379 12.1781 0.809388C13.6149 0.595358 15.1795 0.489174 16.8685 0.489174C22.4415 0.489174 26.6408 1.64725 29.4813 3.9601C32.3184 6.27626 33.737 9.55804 33.737 13.8104H33.7386Z" fill="#6445E8"/>
<path d="M135.203 16.7849C134.713 16.4962 134.324 16.108 134.037 15.6185C133.748 15.1291 133.604 14.5949 133.604 14.0191C133.604 13.4434 133.748 12.9092 134.037 12.4197C134.325 11.9303 134.713 11.5404 135.203 11.2533C135.692 10.9647 136.227 10.8203 136.802 10.8203C137.378 10.8203 137.912 10.9647 138.402 11.2533C138.891 11.542 139.281 11.9303 139.568 12.4197C139.857 12.9092 140.001 13.4434 140.001 14.0191C140.001 14.5949 139.857 15.1291 139.568 15.6185C139.279 16.108 138.891 16.4979 138.402 16.7849C137.912 17.0736 137.378 17.218 136.802 17.218C136.227 17.218 135.692 17.0736 135.203 16.7849ZM138.118 16.3021C138.521 16.0649 138.84 15.7446 139.074 15.3431C139.308 14.94 139.425 14.4986 139.425 14.0175C139.425 13.5363 139.308 13.1033 139.074 12.6968C138.84 12.2903 138.521 11.9701 138.118 11.7328C137.715 11.4956 137.277 11.3761 136.802 11.3761C136.328 11.3761 135.888 11.4956 135.487 11.7328C135.083 11.9701 134.765 12.292 134.531 12.6968C134.297 13.1016 134.179 13.543 134.179 14.0175C134.179 14.492 134.297 14.94 134.531 15.3431C134.765 15.7463 135.083 16.0649 135.487 16.3021C135.89 16.5394 136.328 16.6588 136.802 16.6588C137.277 16.6588 137.715 16.541 138.118 16.3021ZM135.581 15.4692C135.319 15.1623 135.19 14.6845 135.19 14.0357C135.19 13.387 135.321 12.9009 135.581 12.5939C135.843 12.287 136.25 12.1344 136.802 12.1344C137.302 12.1344 137.665 12.2588 137.897 12.5077C138.128 12.7565 138.244 13.1315 138.244 13.6292H137.541C137.541 13.3107 137.488 13.0817 137.378 12.939C137.27 12.798 137.078 12.7267 136.801 12.7267C136.489 12.7267 136.26 12.8279 136.115 13.0286C135.971 13.2294 135.9 13.5645 135.9 14.0341C135.9 14.5036 135.969 14.8288 136.112 15.0296C136.253 15.2303 136.484 15.3315 136.802 15.3315C137.073 15.3315 137.27 15.2569 137.393 15.1059C137.516 14.9566 137.577 14.7309 137.577 14.4306H138.244C138.244 14.8636 138.125 15.2204 137.887 15.5024C137.65 15.7845 137.288 15.9255 136.801 15.9255C136.248 15.9255 135.842 15.7729 135.58 15.4659L135.581 15.4692Z" fill="#FFB943"/>
</g>
<defs>
<clipPath id="clip0_1213_3502">
<rect width="140" height="30.0106" fill="white" transform="translate(0 -3)"/>
</clipPath>
</defs>
</svg>
